<svg width="19" height="35" viewBox="0 0 19 35" fill="none" xmlns="http://www.w3.org/2000/svg">
<path d="M18.1423 23.1445C18.1423 25.1367 17.4974 26.8522 16.2076 28.291C14.9177 29.7298 13.2423 30.6185 11.1812 30.957V34.375C11.1812 34.5573 11.1228 34.707 11.0062 34.8242C10.8895 34.9414 10.7404 35 10.5589 35H7.93394C7.76542 35 7.61959 34.9382 7.49644 34.8145C7.37329 34.6908 7.31172 34.5443 7.31172 34.375V30.957C6.45616 30.8398 5.62977 30.638 4.83255 30.3516C4.03533 30.0651 3.37746 29.7754 2.85894 29.4824C2.34042 29.1895 1.86079 28.877 1.42005 28.5449C0.979311 28.2129 0.677922 27.9688 0.515885 27.8125C0.353848 27.6562 0.240422 27.5391 0.175608 27.4609C-0.0447627 27.1875 -0.0577257 26.9206 0.136719 26.6602L2.1395 24.0234C2.23024 23.8932 2.37931 23.8151 2.58672 23.7891C2.78116 23.763 2.93672 23.8216 3.05339 23.9648L3.09227 24.0039C4.55709 25.293 6.13209 26.1068 7.81727 26.4453C8.2969 26.5495 8.77653 26.6016 9.25616 26.6016C10.3062 26.6016 11.2298 26.3216 12.027 25.7617C12.8242 25.2018 13.2228 24.4076 13.2228 23.3789C13.2228 23.0143 13.1256 22.6693 12.9312 22.3438C12.7367 22.0182 12.5196 21.7448 12.2798 21.5234C12.04 21.3021 11.6608 21.0579 11.1423 20.791C10.6238 20.5241 10.196 20.3158 9.85894 20.166C9.5219 20.0163 9.00338 19.8047 8.30338 19.5312C7.79783 19.3229 7.39922 19.1602 7.10755 19.043C6.81589 18.9258 6.41727 18.7533 5.91172 18.5254C5.40616 18.2975 5.00107 18.0957 4.69644 17.9199C4.39181 17.7441 4.02561 17.513 3.59783 17.2266C3.17005 16.9401 2.82329 16.6634 2.55755 16.3965C2.29181 16.1296 2.00987 15.8105 1.71172 15.4395C1.41357 15.0684 1.18348 14.6908 1.02144 14.3066C0.859404 13.9225 0.723293 13.4896 0.613108 13.0078C0.502922 12.526 0.44783 12.0182 0.44783 11.4844C0.44783 9.6875 1.08301 8.11198 2.35339 6.75781C3.62376 5.40365 5.27653 4.53125 7.31172 4.14062V0.625C7.31172 0.455729 7.37329 0.309245 7.49644 0.185547C7.61959 0.061849 7.76542 0 7.93394 0H10.5589C10.7404 0 10.8895 0.0585938 11.0062 0.175781C11.1228 0.292969 11.1812 0.442708 11.1812 0.625V4.0625C11.9201 4.14062 12.6363 4.29036 13.3298 4.51172C14.0233 4.73307 14.5872 4.95117 15.0214 5.16602C15.4557 5.38086 15.8673 5.625 16.2562 5.89844C16.6451 6.17188 16.8978 6.36068 17.0145 6.46484C17.1312 6.56901 17.2284 6.66016 17.3062 6.73828C17.5265 6.97266 17.5589 7.22005 17.4034 7.48047L15.8284 10.332C15.7247 10.5273 15.5756 10.6315 15.3812 10.6445C15.1997 10.6836 15.0247 10.638 14.8562 10.5078C14.8173 10.4688 14.7233 10.3906 14.5742 10.2734C14.4251 10.1562 14.1724 9.98372 13.8159 9.75586C13.4594 9.528 13.0802 9.31966 12.6784 9.13086C12.2765 8.94206 11.7937 8.77279 11.2298 8.62305C10.6659 8.47331 10.1117 8.39844 9.56727 8.39844C8.33579 8.39844 7.33116 8.67839 6.55339 9.23828C5.77561 9.79818 5.38672 10.5208 5.38672 11.4062C5.38672 11.7448 5.44181 12.0573 5.552 12.3438C5.66218 12.6302 5.85338 12.9004 6.12561 13.1543C6.39783 13.4082 6.65385 13.623 6.89366 13.7988C7.13348 13.9746 7.49644 14.1764 7.98255 14.4043C8.46866 14.6322 8.86079 14.8079 9.15894 14.9316C9.45709 15.0553 9.91079 15.2344 10.5201 15.4688C11.2071 15.7292 11.7321 15.9342 12.0951 16.084C12.458 16.2337 12.9506 16.4616 13.5728 16.7676C14.1951 17.0736 14.6844 17.3503 15.0409 17.5977C15.3974 17.8451 15.7992 18.1706 16.2464 18.5742C16.6937 18.9779 17.0372 19.3913 17.277 19.8145C17.5168 20.2376 17.721 20.7357 17.8895 21.3086C18.058 21.8815 18.1423 22.4935 18.1423 23.1445Z" fill="#F5F5F5"/>
</svg>
