<svg width="74" height="74" viewBox="0 0 74 74" fill="none" xmlns="http://www.w3.org/2000/svg">
<path d="M29.2917 37C36.0935 37 41.625 31.4685 41.625 24.6667C41.625 17.8649 36.0935 12.3334 29.2917 12.3334C22.4898 12.3334 16.9583 17.8649 16.9583 24.6667C16.9583 31.4685 22.4898 37 29.2917 37ZM33.9167 40.0834H24.6667C14.4639 40.0834 6.16666 48.3806 6.16666 58.5834V61.6667H52.4167V58.5834C52.4167 48.3806 44.1194 40.0834 33.9167 40.0834Z" fill="#7C8FB4"/>
<path d="M51.1957 34.0646C53.0736 30.8644 53.8845 27.1496 53.5113 23.4579C52.9593 17.9573 49.8883 13.0949 44.8687 9.76794L41.4616 14.9048C44.9118 17.1926 47.0116 20.4517 47.3754 24.0746C47.5432 25.7584 47.3336 27.4584 46.7618 29.0511C46.19 30.6437 45.2705 32.0888 44.0701 33.2814L40.3948 36.9568L45.3836 38.4214C58.4323 42.2447 58.5833 55.3674 58.5833 55.4999H64.75C64.75 49.9839 61.8023 39.2045 51.1957 34.0646Z" fill="#7C8FB4"/>
</svg>
