<svg width="48" height="48" viewBox="0 0 48 48" fill="none" xmlns="http://www.w3.org/2000/svg">
<path d="M24 4C35.046 4 44 12.954 44 24C44 35.046 35.046 44 24 44C20.596 44.0048 17.2474 43.1372 14.274 41.48L13.664 41.124L7.60002 42.908C7.27002 43.0052 6.92066 43.0166 6.58505 42.941C6.24944 42.8654 5.9387 42.7053 5.68229 42.4759C5.42588 42.2466 5.2323 41.9555 5.1199 41.6304C5.0075 41.3052 4.98 40.9567 5.04002 40.618L5.09202 40.4L6.87602 34.336C4.99012 31.2185 3.99538 27.6435 4.00002 24C4.00002 12.954 12.954 4 24 4ZM24 8C21.1353 7.99948 18.3229 8.76811 15.8567 10.2256C13.3904 11.6831 11.3607 13.7761 9.97954 16.2859C8.59836 18.7957 7.91634 21.6303 8.00473 24.4937C8.09312 27.357 8.94866 30.1442 10.482 32.564C10.878 33.188 11.048 33.956 10.914 34.718L10.836 35.044L9.95402 38.046L12.956 37.164C13.822 36.908 14.722 37.064 15.436 37.518C17.5327 38.8456 19.9094 39.6672 22.3783 39.9181C24.8472 40.1689 27.3406 39.842 29.6614 38.9632C31.9822 38.0844 34.0668 36.6778 35.7504 34.8546C37.4339 33.0314 38.6703 30.8415 39.3618 28.4582C40.0532 26.0749 40.1809 23.5634 39.7345 21.1222C39.2882 18.6811 38.2801 16.3772 36.79 14.3928C35.2999 12.4083 33.3686 10.7977 31.1488 9.68816C28.9291 8.57866 26.4816 8.00071 24 8ZM18.204 14.368C18.4257 14.2731 18.668 14.237 18.9077 14.2633C19.1474 14.2896 19.3762 14.3773 19.572 14.518C20.58 15.254 21.38 16.242 22.068 17.206L22.722 18.154L23.028 18.604C23.2052 18.8619 23.2923 19.1711 23.2756 19.4836C23.259 19.7961 23.1396 20.0944 22.936 20.332L22.786 20.484L20.938 21.856C20.8501 21.9212 20.7883 22.0156 20.7637 22.1223C20.7392 22.229 20.7534 22.3409 20.804 22.438C21.224 23.198 21.966 24.332 22.818 25.184C23.672 26.036 24.858 26.828 25.67 27.294C25.846 27.394 26.058 27.362 26.202 27.232L26.278 27.142L27.48 25.312C27.7004 25.0176 28.0263 24.8202 28.3892 24.7613C28.7522 24.7023 29.1239 24.7865 29.426 24.996L30.512 25.754C31.592 26.524 32.63 27.352 33.452 28.402C33.6041 28.5993 33.7008 28.8337 33.7321 29.0808C33.7634 29.328 33.7281 29.579 33.63 29.808C32.838 31.656 30.832 33.23 28.748 33.154L28.43 33.134L28.048 33.098L27.832 33.07L27.356 32.99C25.508 32.642 22.546 31.594 19.476 28.526C16.408 25.456 15.36 22.494 15.012 20.646L14.932 20.17L14.882 19.754L14.856 19.404L14.848 19.254C14.772 17.166 16.354 15.16 18.204 14.368Z" fill="#3C7FFF"/>
</svg>
