<svg width="48" height="48" viewBox="0 0 48 48" fill="none" xmlns="http://www.w3.org/2000/svg">
<path fill-rule="evenodd" clip-rule="evenodd" d="M18.9528 13.68C17.6304 14.6712 17.0328 15.8592 17.0328 16.968C17.0328 18.0768 17.6304 19.2672 18.9528 20.2608C20.2776 21.2544 22.2168 21.9408 24.4608 21.9408C25.0973 21.9408 25.7078 22.1936 26.1578 22.6437C26.6079 23.0938 26.8608 23.7043 26.8608 24.3408C26.8608 24.9773 26.6079 25.5877 26.1578 26.0378C25.7078 26.4879 25.0973 26.7408 24.4608 26.7408C21.2784 26.7408 18.3048 25.776 16.0728 24.1008C13.8408 22.4256 12.2328 19.9296 12.2328 16.9704C12.2328 14.0112 13.8408 11.5128 16.0728 9.83758C18.3048 8.16478 21.2808 7.19998 24.4608 7.19998C29.388 7.19998 34.0464 9.55918 35.8992 13.488C36.0336 13.7732 36.1105 14.0821 36.1256 14.3971C36.1406 14.712 36.0935 15.0269 35.9868 15.3236C35.8802 15.6204 35.7161 15.8932 35.5041 16.1265C35.292 16.3599 35.036 16.5492 34.7508 16.6836C34.4656 16.818 34.1566 16.8949 33.8417 16.91C33.5267 16.925 33.2119 16.8779 32.9151 16.7712C32.6184 16.6646 32.3456 16.5005 32.1122 16.2885C31.8789 16.0764 31.6896 15.8204 31.5552 15.5352C30.7152 13.7424 28.0944 12 24.4632 12C22.2192 12 20.2776 12.6864 18.9528 13.68Z" fill="#3C7FFF"/>
<path fill-rule="evenodd" clip-rule="evenodd" d="M29.1768 34.9992C30.4992 34.008 31.0944 32.82 31.0944 31.7112C31.0944 30.6024 30.4992 29.4096 29.1744 28.4184C27.852 27.4248 25.9104 26.7384 23.6688 26.7384C23.0323 26.7384 22.4218 26.4855 21.9717 26.0354C21.5216 25.5854 21.2688 24.9749 21.2688 24.3384C21.2688 23.7019 21.5216 23.0914 21.9717 22.6413C22.4218 22.1912 23.0323 21.9384 23.6688 21.9384C26.8512 21.9384 29.8248 22.9032 32.0568 24.5784C34.2888 26.2536 35.8944 28.7496 35.8944 31.7088C35.8944 34.668 34.2888 37.1664 32.0544 38.8392C29.8224 40.5144 26.8512 41.4792 23.6688 41.4792C18.7416 41.4792 14.0808 39.12 12.2304 35.1888C11.9589 34.6131 11.9273 33.9531 12.1424 33.354C12.3575 32.7549 12.8019 32.2659 13.3776 31.9944C13.9533 31.7229 14.6133 31.6913 15.2124 31.9064C15.8114 32.1216 16.3005 32.5659 16.572 33.1416C17.4168 34.9368 20.0376 36.6792 23.6688 36.6792C25.9128 36.6792 27.852 35.9928 29.1768 34.9992ZM24 2.39999C24.6365 2.39999 25.247 2.65285 25.697 3.10294C26.1471 3.55302 26.4 4.16347 26.4 4.79999V7.19999C26.4 7.83651 26.1471 8.44696 25.697 8.89705C25.247 9.34714 24.6365 9.59999 24 9.59999C23.3635 9.59999 22.753 9.34714 22.3029 8.89705C21.8528 8.44696 21.6 7.83651 21.6 7.19999V4.79999C21.6 4.16347 21.8528 3.55302 22.3029 3.10294C22.753 2.65285 23.3635 2.39999 24 2.39999Z" fill="#3C7FFF"/>
<path fill-rule="evenodd" clip-rule="evenodd" d="M24 38.4C24.6365 38.4 25.2469 38.6528 25.697 39.1029C26.1471 39.553 26.4 40.1635 26.4 40.8V43.2C26.4 43.8365 26.1471 44.447 25.697 44.8971C25.2469 45.3471 24.6365 45.6 24 45.6C23.3635 45.6 22.753 45.3471 22.3029 44.8971C21.8528 44.447 21.6 43.8365 21.6 43.2V40.8C21.6 40.1635 21.8528 39.553 22.3029 39.1029C22.753 38.6528 23.3635 38.4 24 38.4Z" fill="#3C7FFF"/>
</svg>
