<svg width="95" height="95" viewBox="0 0 95 95" fill="none" xmlns="http://www.w3.org/2000/svg">
<g filter="url(#filter0_d_2026_476)">
<path d="M61.1563 65.3917L49.2417 53.4771C48.8063 53.0417 48.2917 52.9625 48.0146 52.9625C47.7375 52.9625 47.2229 53.0417 46.7875 53.4771L34.8334 65.4313C33.4875 66.7771 31.3896 68.9542 24.3834 68.9542L39.0688 83.6C41.2953 85.8238 44.3136 87.0729 47.4604 87.0729C50.6073 87.0729 53.6255 85.8238 55.8521 83.6L70.5771 68.9146C66.975 68.9146 63.9667 68.2021 61.1563 65.3917ZM34.8334 29.5688L46.7875 41.5229C47.1042 41.8396 47.5792 42.0375 48.0146 42.0375C48.45 42.0375 48.925 41.8396 49.2417 41.5229L61.0771 29.6875C63.8875 26.7583 67.0938 26.0854 70.6959 26.0854L55.9709 11.4C53.7443 9.17621 50.7261 7.92712 47.5792 7.92712C44.4323 7.92712 41.4141 9.17621 39.1875 11.4L24.5021 26.0458C31.4688 26.0458 33.6063 28.3417 34.8334 29.5688Z" fill="#2D9383"/>
<path d="M83.5604 38.9896L74.6542 30.0438H69.6667C67.5292 30.0438 65.3917 30.9146 63.9271 32.4583L52.0521 44.3333C50.9438 45.4417 49.4792 45.9958 48.0146 45.9958C46.5064 45.9746 45.0629 45.3802 43.9771 44.3333L32.0229 32.3396C30.5188 30.8354 28.4604 29.9646 26.2833 29.9646H20.4646L11.4 39.0688C9.17621 41.2953 7.92712 44.3135 7.92712 47.4604C7.92712 50.6073 9.17621 53.6255 11.4 55.8521L20.4646 64.9563H26.3229C28.4604 64.9563 30.5188 64.0854 32.0625 62.5813L44.0167 50.6271C45.125 49.5188 46.5896 48.9646 48.0542 48.9646C49.5188 48.9646 50.9833 49.5188 52.0917 50.6271L64.0063 62.5417C65.5104 64.0458 67.5688 64.9167 69.7458 64.9167H74.7333L83.6396 55.9708C85.8747 53.7052 87.1212 50.6464 87.1063 47.4639C87.0915 44.2813 85.8165 41.2343 83.5604 38.9896Z" fill="#2D9383"/>
</g>
<defs>
<filter id="filter0_d_2026_476" x="-1" y="-1" width="97" height="97" filterUnits="userSpaceOnUse" color-interpolation-filters="sRGB">
<feFlood flood-opacity="0" result="BackgroundImageFix"/>
<feColorMatrix in="SourceAlpha" type="matrix" values="0 0 0 0 0 0 0 0 0 0 0 0 0 0 0 0 0 0 127 0" result="hardAlpha"/>
<feOffset/>
<feGaussianBlur stdDeviation="0.5"/>
<feComposite in2="hardAlpha" operator="out"/>
<feColorMatrix type="matrix" values="0 0 0 0 0 0 0 0 0 0 0 0 0 0 0 0 0 0 0.1 0"/>
<feBlend mode="normal" in2="BackgroundImageFix" result="effect1_dropShadow_2026_476"/>
<feBlend mode="normal" in="SourceGraphic" in2="effect1_dropShadow_2026_476" result="shape"/>
</filter>
</defs>
</svg>
