<svg width="107" height="107" viewBox="0 0 107 107" fill="none" xmlns="http://www.w3.org/2000/svg">
<rect width="107" height="107" rx="53.5" fill="#2E3746"/>
<path d="M47.6464 53.8847C52.8116 53.8847 57.0121 49.5116 57.0121 44.1341C57.0121 38.7567 52.8116 34.3835 47.6464 34.3835C42.4812 34.3835 38.2807 38.7567 38.2807 44.1341C38.2807 49.5116 42.4812 53.8847 47.6464 53.8847ZM51.1586 56.3224H44.1343C36.3865 56.3224 30.0857 62.8821 30.0857 70.9483V73.3859H65.2071V70.9483C65.2071 62.8821 58.9063 56.3224 51.1586 56.3224Z" fill="#3CE094"/>
<path d="M64.2799 51.5642C65.706 49.0341 66.3218 46.0973 66.0383 43.1786C65.6192 38.8299 63.2872 34.9857 59.4753 32.3555L56.888 36.4166C59.5081 38.2253 61.1026 40.8019 61.3789 43.6662C61.5063 44.9974 61.3471 46.3414 60.9129 47.6005C60.4787 48.8596 59.7805 50.0021 58.8689 50.945L56.0779 53.8507L59.8663 55.0086C69.7753 58.0312 69.89 68.4059 69.89 68.5107H74.5728C74.5728 64.1497 72.3344 55.6277 64.2799 51.5642Z" fill="#3CE094"/>
</svg>
